# xmcd
# 
# Track frame offsets:
#     150
#     16947
#     35472
#     45870
#     62361
#     78850
#     96528
#     117625
#     147554
#     160662
#     178305
#     208983
#     233746
#     245028
#     260322
#     277904
#     290951
#     309170
#     326002
#     340534
# 
# Disc length: 4719
# 
# Revision: 0
# Processed by: cddbd v1.5.2PL0 Copyright (c) Steve Scherf et al.
# Submitted via: fre:ac v1.0.31
# 
DISCID=20126d14
DTITLE=Lynda Lemay - compil Lynda Lemay [CD1)
DYEAR=2010
DGENRE=Chanson
TTITLE0=Alphonse
TTITLE1=Au Nom Des Frustrées
TTITLE2=Bande De Dégonflantes
TTITLE3=Berceuse pour adulte
TTITLE4=Berceuse pour adultes
TTITLE5=Ca Sent Le Bébé
TTITLE6=c'est vendredi
TTITLE7=Ceux que l'on met au monde
TTITLE8=Chéri, tu ronfles
TTITLE9=Dans mon jeune temps
TTITLE10=De Tes Reves A Mes Reves
TTITLE11=Décevoir
TTITLE12=Des pieds et des mains
TTITLE13=Donnez-Lui La Passion
TTITLE14=Drôle de mine
TTITLE15=Du coq à l'âme
TTITLE16=Entre vous deux
TTITLE17=Epoustouflante
TTITLE18=Faut faire du bien
TTITLE19=femme d'un sex symbol
EXTD=
EXTT0=
EXTT1=
EXTT2=
EXTT3=
EXTT4=
EXTT5=
EXTT6=
EXTT7=
EXTT8=
EXTT9=
EXTT10=
EXTT11=
EXTT12=
EXTT13=
EXTT14=
EXTT15=
EXTT16=
EXTT17=
EXTT18=
EXTT19=
PLAYORDER=
